<svg width="324" height="49" viewBox="0 0 324 49" fill="none" xmlns="http://www.w3.org/2000/svg">
<g clip-path="url(#clip0_159_286)">
<path d="M161.417 14.2917C164.917 14.2917 165.5 11.5561 165.5 9.30093C165.5 7.04577 163.994 3.0625 161.417 3.0625C158.839 3.0625 157.333 7.04577 157.333 9.30093C157.333 11.5561 157.917 14.2917 161.417 14.2917ZM144.062 20.9271C144.062 18.39 146.119 16.3333 148.656 16.3333H174.177C176.714 16.3333 178.771 18.39 178.771 20.9271V22.7135L171.351 28.2783C170.527 28.8961 169.413 28.9584 168.526 28.4365L164.362 25.9874C162.534 24.9116 160.255 24.9586 158.472 26.1088L154.877 28.4282C154.039 28.969 152.962 28.9717 152.12 28.4347L144.062 23.2913V20.9271ZM144.062 26.9245V37.7708H142.531C141.686 37.7708 141 38.4564 141 39.3021C141 40.1477 141.686 40.8333 142.531 40.8333H180.302C181.148 40.8333 181.833 40.1477 181.833 39.3021C181.833 38.4564 181.148 37.7708 180.302 37.7708H178.771V26.5417L173.189 30.7283C171.377 32.0874 168.926 32.2246 166.973 31.0762L162.81 28.627C161.979 28.138 160.943 28.1595 160.132 28.6824L156.537 31.0015C154.693 32.1918 152.323 32.1975 150.473 31.0162L144.062 26.9245Z" fill="#FF7A00"/>
</g>
<defs>
<clipPath id="clip0_159_286">
<rect width="324" height="49" fill="white"/>
</clipPath>
</defs>
</svg>
