<svg width="42" height="42" viewBox="0 0 42 42" fill="none" xmlns="http://www.w3.org/2000/svg">
<path d="M27.7443 10.755C27.891 10.9022 28.028 11.058 28.1545 11.2215C28.4989 11.6666 28.7661 12.1683 28.9432 12.7056L29.7269 15.1149C29.7923 15.3006 29.914 15.4614 30.0748 15.5752C30.2358 15.6889 30.4279 15.75 30.625 15.75C30.8221 15.75 31.0142 15.6889 31.1752 15.5752C31.3187 15.4737 31.4309 15.3348 31.5 15.1741C31.5084 15.1547 31.5161 15.135 31.5231 15.1149L32.3068 12.7056C32.5505 11.9732 32.9618 11.3076 33.5079 10.7618C34.0541 10.216 34.7204 9.80499 35.4533 9.56151L37.8644 8.77849C38.0503 8.71297 38.2113 8.59149 38.325 8.43073C38.4389 8.26999 38.5 8.07793 38.5 7.88102C38.5 7.68411 38.4389 7.49205 38.325 7.33131C38.2113 7.17057 38.0503 7.04907 37.8644 6.98357L37.8163 6.97151L35.4051 6.18849C34.6721 5.94501 34.006 5.53403 33.4597 4.98822C32.9135 4.44243 32.5022 3.77683 32.2586 3.04435L31.475 0.635064C31.4094 0.449368 31.2877 0.288566 31.1269 0.174824C30.9661 0.0610811 30.7739 0 30.5767 0C30.3797 0 30.1875 0.0610811 30.0267 0.174824C29.8659 0.288566 29.7442 0.449368 29.6786 0.635064L28.895 3.04435L28.875 3.10401C28.634 3.80791 28.2375 4.44892 27.7148 4.9794C27.5287 5.16826 27.3284 5.34133 27.1157 5.49729L27.114 5.49556C26.9293 5.63155 26.7358 5.75491 26.5345 5.86481C26.2985 5.99211 26.0517 6.10048 25.7968 6.18849L24.7453 6.52991L23.3809 6.96498C23.1982 7.03454 23.04 7.15626 22.9259 7.31498C22.8125 7.46784 22.7512 7.65268 22.7504 7.84238C22.7502 7.85123 22.75 7.86011 22.75 7.86898C22.75 7.88188 22.7503 7.89477 22.7507 7.90762C22.7537 8.07327 22.8036 8.23456 22.8944 8.37275C22.9042 8.38833 22.9143 8.40364 22.925 8.41869C23.0092 8.53771 23.1194 8.63522 23.2463 8.70441C23.2894 8.72865 23.3343 8.74975 23.3809 8.76748L25.7959 9.55498C26.247 9.70328 26.673 9.91522 27.0615 10.1832C27.3049 10.3524 27.5336 10.5436 27.7443 10.755ZM40.2806 17.438L41.6201 17.8731L41.6469 17.8797C41.7501 17.9161 41.8395 17.9837 41.9029 18.073C41.966 18.1622 42 18.2689 42 18.3783C42 18.4877 41.966 18.5944 41.9029 18.6837C41.8395 18.7731 41.7501 18.8405 41.6469 18.8769L40.3074 19.312C39.9002 19.4472 39.53 19.6756 39.2266 19.9787C38.9231 20.282 38.6948 20.6517 38.5593 21.0586L38.1239 22.3972C38.0875 22.5003 38.02 22.5897 37.9305 22.6529C37.8413 22.716 37.7346 22.75 37.625 22.75C37.5671 22.75 37.5097 22.7406 37.4554 22.7222C37.3837 22.7066 37.3161 22.6742 37.2584 22.6275C37.1627 22.5718 37.0886 22.4856 37.0484 22.3825L36.8877 21.6645L36.6907 21.0586C36.5563 20.6505 36.3281 20.2794 36.0246 19.975C35.721 19.6705 35.3505 19.4413 34.9426 19.3053L33.6031 18.8703C33.4999 18.8339 33.4105 18.7663 33.3471 18.677C33.284 18.5878 33.25 18.4811 33.25 18.3717C33.25 18.2623 33.284 18.1556 33.3471 18.0663C33.4105 17.9769 33.4999 17.9095 33.6031 17.8731L34.9426 17.438C35.3449 17.2993 35.7096 17.0694 36.0082 16.7663C36.3067 16.4633 36.5312 16.0954 36.6639 15.6913L37.0993 14.3528C37.1357 14.2497 37.2033 14.1603 37.2925 14.0971C37.3819 14.0339 37.4887 14 37.5982 14C37.7078 14 37.8145 14.0339 37.9038 14.0971C37.9932 14.1603 38.0607 14.2497 38.0971 14.3528L38.5326 15.6913C38.6678 16.0983 38.8964 16.468 39.1998 16.7712C39.5033 17.0745 39.8734 17.3028 40.2806 17.438ZM26.25 21.875C26.25 18.9754 23.8996 16.625 21 16.625C18.1004 16.625 15.75 18.9754 15.75 21.875C15.75 24.7746 18.1004 27.125 21 27.125C23.8996 27.125 26.25 24.7746 26.25 21.875ZM38.5 31.0625V24.3114C38.2055 24.447 37.8835 24.5182 37.5559 24.5182C37.0851 24.5182 36.6263 24.3712 36.2434 24.0975C35.8472 23.8156 35.5478 23.4183 35.3859 22.96L34.9659 21.63C34.9163 21.4788 34.8323 21.3409 34.7209 21.2275C34.608 21.1237 34.4776 21.0408 34.3359 20.9825L32.9534 20.545C32.508 20.3854 32.1228 20.0921 31.8509 19.705C31.5742 19.3237 31.427 18.8636 31.4309 18.3925C31.4291 17.986 31.538 17.5868 31.7459 17.2375C31.3778 17.4264 30.9694 17.5226 30.5559 17.5175C29.999 17.5158 29.4558 17.3449 28.9984 17.0275C28.5344 16.6924 28.1859 16.2216 28.0009 15.68L27.2309 13.265C27.1149 12.9188 26.9433 12.5938 26.7234 12.3025L26.4609 12.005C26.1077 11.6521 25.6758 11.3882 25.2009 11.235L22.7509 10.43C22.2295 10.2337 21.7787 9.8864 21.4559 9.43248C21.1384 8.97496 20.9676 8.43182 20.9659 7.87498C20.9673 7.31269 21.1381 6.76387 21.4559 6.29998C21.7964 5.84153 22.2654 5.4944 22.8034 5.30248L25.1834 4.53248C25.2217 4.51958 25.26 4.50594 25.2978 4.49155C24.997 4.41849 24.6853 4.38034 24.3682 4.38034H17.7142C16.3455 4.38034 15.0749 5.09112 14.3587 6.25749L12.8282 8.75H9.1875C6.04637 8.75 3.5 11.2964 3.5 14.4375V31.0625C3.5 34.2036 6.04637 36.75 9.1875 36.75H32.8125C35.9536 36.75 38.5 34.2036 38.5 31.0625ZM13.125 21.875C13.125 17.5257 16.6508 14 21 14C25.3493 14 28.875 17.5257 28.875 21.875C28.875 26.2243 25.3493 29.75 21 29.75C16.6508 29.75 13.125 26.2243 13.125 21.875Z" fill="#FF8126"/>
</svg>
