<svg width="50" height="50" viewBox="0 0 50 50" fill="none" xmlns="http://www.w3.org/2000/svg">
<path d="M16.6667 25C21.269 25 25 21.2689 25 16.6666C25 12.0643 21.269 8.33331 16.6667 8.33331C12.0643 8.33331 8.33333 12.0643 8.33333 16.6666C8.33333 21.2689 12.0643 25 16.6667 25ZM35.4167 25C38.8685 25 41.6667 22.2019 41.6667 18.75C41.6667 15.2982 38.8685 12.5 35.4167 12.5C31.9648 12.5 29.1667 15.2982 29.1667 18.75C29.1667 22.2019 31.9648 25 35.4167 25ZM8.85417 29.1666C6.26533 29.1666 4.16667 31.2654 4.16667 33.8541V34.375C4.16667 34.375 4.16667 43.75 16.6667 43.75C29.1667 43.75 29.1667 34.375 29.1667 34.375V33.8541C29.1667 31.2654 27.0679 29.1666 24.4792 29.1666H8.85417ZM35.4171 40.625C32.9771 40.625 31.1085 40.2477 29.6777 39.67C30.3902 38.4723 30.7748 37.3212 30.9842 36.4242C31.11 35.8848 31.176 35.4223 31.211 35.0735C31.2285 34.8983 31.2383 34.75 31.2437 34.6327C31.2465 34.5739 31.2481 34.5227 31.2492 34.4798L31.2502 34.4212L31.2504 34.3964V34.3854V34.38C31.2504 34.3733 31.2504 34.375 31.2504 34.375V33.8541C31.2504 32.0373 30.5348 30.3877 29.3702 29.1714C29.4408 29.1683 29.5121 29.1666 29.5837 29.1666H41.2504C43.7817 29.1666 45.8337 31.2187 45.8337 33.75C45.8337 33.75 45.8337 40.625 35.4171 40.625Z" fill="#FF8126"/>
</svg>
